<svg xmlns="http://www.w3.org/2000/svg" viewBox="-120 -268 680 638" width="680" font-family="Inter,Segoe UI,Helvetica,Arial,sans-serif">
<defs><pattern id="dots" width="20" height="20" patternUnits="userSpaceOnUse"><circle cx="1" cy="1" r="1" fill="#D5D9E0"/></pattern><filter id="sh" x="-20%" y="-20%" width="140%" height="140%"><feDropShadow dx="0" dy="2" stdDeviation="3" flood-color="#0F172A" flood-opacity=".10"/></filter><marker id="arr" viewBox="0 0 10 10" refX="9" refY="5" markerWidth="7" markerHeight="7" orient="auto"><path d="M0,0 L10,5 L0,10 z" fill="#94A3B8"/></marker></defs>
<rect x="-120" y="-268" width="680" height="638" rx="14" fill="#F8FAFC"/>
<rect x="-120" y="-268" width="680" height="638" rx="14" fill="url(#dots)"/>
<rect x="-120" y="-268" width="680" height="36" rx="14" fill="#1F2937"/><rect x="-120" y="-248" width="680" height="16" fill="#1F2937"/>
<circle cx="-100" cy="-250" r="5" fill="#FF5F57"/><circle cx="-82" cy="-250" r="5" fill="#FEBC2E"/><circle cx="-64" cy="-250" r="5" fill="#28C840"/>
<text x="-44" y="-245" font-size="13" fill="#E5E7EB" font-weight="600">P10 · MCP server: expose company tools to Claude, ChatGPT &amp; IDE agents</text>
<rect x="-40" y="-192" width="560" height="152" rx="8" fill="#FFF8DB" stroke="#F2D675"/>
<text x="-26" y="-164" font-size="15" fill="#5B4B12" font-weight="700">🔌 P10 · n8n as an MCP server</text>
<text x="-26" y="-142" font-size="12.5" fill="#5B4B12" font-weight="400">Any MCP client (Claude Desktop, Claude Code, Cursor, ChatGPT connectors…) can</text>
<text x="-26" y="-125" font-size="12.5" fill="#5B4B12" font-weight="400">call these tools:</text>
<text x="-26" y="-108" font-size="12.5" fill="#5B4B12" font-weight="400">• lookupcustomer (sub-workflow P10a)</text>
<text x="-26" y="-91" font-size="12.5" fill="#5B4B12" font-weight="400">• getexchangerate (HTTP)</text>
<text x="-26" y="-74" font-size="12.5" fill="#5B4B12" font-weight="400">• calculator</text>
<text x="-26" y="-57" font-size="12.5" fill="#5B4B12" font-weight="400">Protect it with Bearer auth. Copy the Production URL into your MCP client.</text>
<path d="M-28.0,220 C-28.0,177.0 50.0,177.0 50.0,136" stroke="#A78BFA" stroke-width="1.6" stroke-dasharray="5 4" fill="none"/>
<path d="M132.0,220 C132.0,177.0 50.0,177.0 50.0,136" stroke="#A78BFA" stroke-width="1.6" stroke-dasharray="5 4" fill="none"/>
<path d="M292.0,220 C292.0,177.0 50.0,177.0 50.0,136" stroke="#A78BFA" stroke-width="1.6" stroke-dasharray="5 4" fill="none"/>
<rect x="0" y="0" width="100" height="100" rx="10" fill="#FFFFFF" stroke="#2EA44F" stroke-width="2" filter="url(#sh)"/>
<path d="M30,0 H10 A10,10 0 0 0 0,10 V90 A10,10 0 0 0 10,100 H30" fill="none" stroke="#2EA44F" stroke-width="5"/>
<rect x="22" y="18" width="56" height="56" rx="12" fill="#E8F7EE"/>
<text x="50" y="55" font-size="24" text-anchor="middle" fill="#2EA44F" font-weight="700">⚡</text>
<text x="50.0" y="120" font-size="12.5" text-anchor="middle" fill="#1F2937" font-weight="600">MCP Server Trigger</text>
<circle cx="-28" cy="252" r="32" fill="#F7F3FF" stroke="#A78BFA" stroke-width="2" filter="url(#sh)"/>
<text x="-28" y="259" font-size="19" text-anchor="middle" fill="#A78BFA" font-weight="700">↗</text>
<text x="-28" y="304" font-size="12.5" text-anchor="middle" fill="#1F2937" font-weight="600">lookup_customer</text>
<circle cx="132" cy="252" r="32" fill="#F7F3FF" stroke="#A78BFA" stroke-width="2" filter="url(#sh)"/>
<text x="132" y="259" font-size="19" text-anchor="middle" fill="#A78BFA" font-weight="700">⇄</text>
<text x="132" y="304" font-size="12.5" text-anchor="middle" fill="#1F2937" font-weight="600">get_exchange_rate</text>
<circle cx="292" cy="252" r="32" fill="#F7F3FF" stroke="#A78BFA" stroke-width="2" filter="url(#sh)"/>
<text x="292" y="259" font-size="19" text-anchor="middle" fill="#A78BFA" font-weight="700">±</text>
<text x="292" y="304" font-size="12.5" text-anchor="middle" fill="#1F2937" font-weight="600">calculator</text>
</svg>