<svg xmlns="http://www.w3.org/2000/svg" viewBox="-80 -200 820 570" width="820" font-family="Inter,Segoe UI,Helvetica,Arial,sans-serif">
<defs><pattern id="dots" width="20" height="20" patternUnits="userSpaceOnUse"><circle cx="1" cy="1" r="1" fill="#D5D9E0"/></pattern><filter id="sh" x="-20%" y="-20%" width="140%" height="140%"><feDropShadow dx="0" dy="2" stdDeviation="3" flood-color="#0F172A" flood-opacity=".10"/></filter><marker id="arr" viewBox="0 0 10 10" refX="9" refY="5" markerWidth="7" markerHeight="7" orient="auto"><path d="M0,0 L10,5 L0,10 z" fill="#94A3B8"/></marker></defs>
<rect x="-80" y="-200" width="820" height="570" rx="14" fill="#F8FAFC"/>
<rect x="-80" y="-200" width="820" height="570" rx="14" fill="url(#dots)"/>
<rect x="-80" y="-200" width="820" height="36" rx="14" fill="#1F2937"/><rect x="-80" y="-180" width="820" height="16" fill="#1F2937"/>
<circle cx="-60" cy="-182" r="5" fill="#FF5F57"/><circle cx="-42" cy="-182" r="5" fill="#FEBC2E"/><circle cx="-24" cy="-182" r="5" fill="#28C840"/>
<text x="-4" y="-177" font-size="13" fill="#E5E7EB" font-weight="600">P09 · Deep research agent (web search + page reading + cited report)</text>
<rect x="-40" y="-124" width="560" height="84" rx="8" fill="#FFF8DB" stroke="#F2D675"/>
<text x="-26" y="-96" font-size="15" fill="#5B4B12" font-weight="700">🔎 P09 · A junior analyst in a workflow</text>
<text x="-26" y="-74" font-size="12.5" fill="#5B4B12" font-weight="400">Form with a question → agent plans, searches Google, reads pages, checks</text>
<text x="-26" y="-57" font-size="12.5" fill="#5B4B12" font-weight="400">Wikipedia, then writes a structured report with sources and emails it.</text>
<path d="M100,50.0 C170.0,50.0 170.0,50.0 236,50.0" stroke="#94A3B8" stroke-width="2" fill="none" marker-end="url(#arr)"/>
<path d="M340,50.0 C450.0,50.0 450.0,50.0 556,50.0" stroke="#94A3B8" stroke-width="2" fill="none" marker-end="url(#arr)"/>
<path d="M132.0,220 C132.0,177.0 290.0,177.0 290.0,136" stroke="#A78BFA" stroke-width="1.6" stroke-dasharray="5 4" fill="none"/>
<path d="M272.0,220 C272.0,177.0 290.0,177.0 290.0,136" stroke="#A78BFA" stroke-width="1.6" stroke-dasharray="5 4" fill="none"/>
<path d="M412.0,220 C412.0,177.0 290.0,177.0 290.0,136" stroke="#A78BFA" stroke-width="1.6" stroke-dasharray="5 4" fill="none"/>
<path d="M552.0,220 C552.0,177.0 290.0,177.0 290.0,136" stroke="#A78BFA" stroke-width="1.6" stroke-dasharray="5 4" fill="none"/>
<rect x="0" y="0" width="100" height="100" rx="10" fill="#FFFFFF" stroke="#2EA44F" stroke-width="2" filter="url(#sh)"/>
<path d="M30,0 H10 A10,10 0 0 0 0,10 V90 A10,10 0 0 0 10,100 H30" fill="none" stroke="#2EA44F" stroke-width="5"/>
<rect x="22" y="18" width="56" height="56" rx="12" fill="#E8F7EE"/>
<text x="50" y="55" font-size="24" text-anchor="middle" fill="#2EA44F" font-weight="700">☰</text>
<text x="50.0" y="120" font-size="12.5" text-anchor="middle" fill="#1F2937" font-weight="600">Research Request</text>
<rect x="240" y="0" width="100" height="100" rx="10" fill="#FFFFFF" stroke="#7C3AED" stroke-width="2" filter="url(#sh)"/>
<rect x="262" y="18" width="56" height="56" rx="12" fill="#F1EBFF"/>
<text x="290" y="55" font-size="24" text-anchor="middle" fill="#7C3AED" font-weight="700">🤖</text>
<text x="290.0" y="120" font-size="12.5" text-anchor="middle" fill="#1F2937" font-weight="600">Research Agent</text>
<circle cx="132" cy="252" r="32" fill="#F7F3FF" stroke="#A78BFA" stroke-width="2" filter="url(#sh)"/>
<text x="132" y="259" font-size="19" text-anchor="middle" fill="#A78BFA" font-weight="700">G</text>
<text x="132" y="304" font-size="12.5" text-anchor="middle" fill="#1F2937" font-weight="600">Gemini</text>
<circle cx="272" cy="252" r="32" fill="#F7F3FF" stroke="#A78BFA" stroke-width="2" filter="url(#sh)"/>
<text x="272" y="259" font-size="19" text-anchor="middle" fill="#A78BFA" font-weight="700">◆</text>
<text x="272" y="304" font-size="12.5" text-anchor="middle" fill="#1F2937" font-weight="600">google_search</text>
<circle cx="412" cy="252" r="32" fill="#F7F3FF" stroke="#A78BFA" stroke-width="2" filter="url(#sh)"/>
<text x="412" y="259" font-size="19" text-anchor="middle" fill="#A78BFA" font-weight="700">⇄</text>
<text x="412" y="304" font-size="12.5" text-anchor="middle" fill="#1F2937" font-weight="600">read_page</text>
<circle cx="552" cy="252" r="32" fill="#F7F3FF" stroke="#A78BFA" stroke-width="2" filter="url(#sh)"/>
<text x="552" y="259" font-size="19" text-anchor="middle" fill="#A78BFA" font-weight="700">W</text>
<text x="552" y="304" font-size="12.5" text-anchor="middle" fill="#1F2937" font-weight="600">Wikipedia</text>
<rect x="560" y="0" width="100" height="100" rx="10" fill="#FFFFFF" stroke="#E11D48" stroke-width="2" filter="url(#sh)"/>
<rect x="582" y="18" width="56" height="56" rx="12" fill="#FFEDEF"/>
<text x="610" y="55" font-size="24" text-anchor="middle" fill="#E11D48" font-weight="700">✉</text>
<text x="610.0" y="120" font-size="12.5" text-anchor="middle" fill="#1F2937" font-weight="600">Email Report</text>
</svg>