<svg xmlns="http://www.w3.org/2000/svg" viewBox="-100 -334 1720 684" width="1400" font-family="Inter,Segoe UI,Helvetica,Arial,sans-serif">
<defs><pattern id="dots" width="20" height="20" patternUnits="userSpaceOnUse"><circle cx="1" cy="1" r="1" fill="#D5D9E0"/></pattern><filter id="sh" x="-20%" y="-20%" width="140%" height="140%"><feDropShadow dx="0" dy="2" stdDeviation="3" flood-color="#0F172A" flood-opacity=".10"/></filter><marker id="arr" viewBox="0 0 10 10" refX="9" refY="5" markerWidth="7" markerHeight="7" orient="auto"><path d="M0,0 L10,5 L0,10 z" fill="#94A3B8"/></marker></defs>
<rect x="-100" y="-334" width="1720" height="684" rx="14" fill="#F8FAFC"/>
<rect x="-100" y="-334" width="1720" height="684" rx="14" fill="url(#dots)"/>
<rect x="-100" y="-334" width="1720" height="36" rx="14" fill="#1F2937"/><rect x="-100" y="-314" width="1720" height="16" fill="#1F2937"/>
<circle cx="-80" cy="-316" r="5" fill="#FF5F57"/><circle cx="-62" cy="-316" r="5" fill="#FEBC2E"/><circle cx="-44" cy="-316" r="5" fill="#28C840"/>
<text x="-24" y="-311" font-size="13" fill="#E5E7EB" font-weight="600">L15 · Retrospective → AI action items → human approval → Jira</text>
<rect x="-60" y="-258" width="500" height="118" rx="8" fill="#FFF8DB" stroke="#F2D675"/>
<text x="-46" y="-230" font-size="15" fill="#5B4B12" font-weight="700">✋ L15 · Human-in-the-loop</text>
<text x="-46" y="-208" font-size="12.5" fill="#5B4B12" font-weight="400">AI drafts the action items, but a human approves before anything is</text>
<text x="-46" y="-191" font-size="12.5" fill="#5B4B12" font-weight="400">created in Jira.</text>
<text x="-46" y="-174" font-size="12.5" fill="#5B4B12" font-weight="400">Gmail Send and Wait for Response pauses the execution until the Scrum</text>
<text x="-46" y="-157" font-size="12.5" fill="#5B4B12" font-weight="400">Master clicks Approve / Decline.</text>
<path d="M100,50.0 C170.0,50.0 170.0,50.0 236,50.0" stroke="#94A3B8" stroke-width="2" fill="none" marker-end="url(#arr)"/>
<path d="M340,50.0 C450.0,50.0 450.0,50.0 556,50.0" stroke="#94A3B8" stroke-width="2" fill="none" marker-end="url(#arr)"/>
<path d="M660,50.0 C720.0,50.0 720.0,50.0 776,50.0" stroke="#94A3B8" stroke-width="2" fill="none" marker-end="url(#arr)"/>
<path d="M880,50.0 C940.0,50.0 940.0,50.0 996,50.0" stroke="#94A3B8" stroke-width="2" fill="none" marker-end="url(#arr)"/>
<path d="M1100,33.333333333333336 C1160.0,33.333333333333336 1160.0,-50.0 1216,-50.0" stroke="#94A3B8" stroke-width="2" fill="none" marker-end="url(#arr)"/>
<text x="1108" y="28.333333333333336" font-size="11" fill="#64748B">true</text>
<path d="M1100,66.66666666666667 C1160.0,66.66666666666667 1160.0,170.0 1216,170.0" stroke="#94A3B8" stroke-width="2" fill="none" marker-end="url(#arr)"/>
<text x="1108" y="61.66666666666667" font-size="11" fill="#64748B">false</text>
<path d="M1320,-50.0 C1380.0,-50.0 1380.0,-50.0 1436,-50.0" stroke="#94A3B8" stroke-width="2" fill="none" marker-end="url(#arr)"/>
<path d="M212.0,200 C212.0,167.0 290.0,167.0 290.0,136" stroke="#A78BFA" stroke-width="1.6" stroke-dasharray="5 4" fill="none"/>
<path d="M372.0,200 C372.0,167.0 290.0,167.0 290.0,136" stroke="#A78BFA" stroke-width="1.6" stroke-dasharray="5 4" fill="none"/>
<rect x="0" y="0" width="100" height="100" rx="10" fill="#FFFFFF" stroke="#2EA44F" stroke-width="2" filter="url(#sh)"/>
<path d="M30,0 H10 A10,10 0 0 0 0,10 V90 A10,10 0 0 0 10,100 H30" fill="none" stroke="#2EA44F" stroke-width="5"/>
<rect x="22" y="18" width="56" height="56" rx="12" fill="#E8F7EE"/>
<text x="50" y="55" font-size="24" text-anchor="middle" fill="#2EA44F" font-weight="700">☰</text>
<text x="50.0" y="120" font-size="12.5" text-anchor="middle" fill="#1F2937" font-weight="600">Retrospective Form</text>
<rect x="240" y="0" width="100" height="100" rx="10" fill="#FFFFFF" stroke="#7C3AED" stroke-width="2" filter="url(#sh)"/>
<rect x="262" y="18" width="56" height="56" rx="12" fill="#F1EBFF"/>
<text x="290" y="55" font-size="24" text-anchor="middle" fill="#7C3AED" font-weight="700">✦</text>
<text x="290.0" y="120" font-size="12.5" text-anchor="middle" fill="#1F2937" font-weight="600">Analyze Retro</text>
<circle cx="212" cy="232" r="32" fill="#F7F3FF" stroke="#A78BFA" stroke-width="2" filter="url(#sh)"/>
<text x="212" y="239" font-size="19" text-anchor="middle" fill="#A78BFA" font-weight="700">G</text>
<text x="212" y="284" font-size="12.5" text-anchor="middle" fill="#1F2937" font-weight="600">Gemini</text>
<circle cx="372" cy="232" r="32" fill="#F7F3FF" stroke="#A78BFA" stroke-width="2" filter="url(#sh)"/>
<text x="372" y="239" font-size="19" text-anchor="middle" fill="#A78BFA" font-weight="700">{}</text>
<text x="372" y="284" font-size="12.5" text-anchor="middle" fill="#1F2937" font-weight="600">Retro Schema</text>
<rect x="560" y="0" width="100" height="100" rx="10" fill="#FFFFFF" stroke="#64748B" stroke-width="2" filter="url(#sh)"/>
<rect x="582" y="18" width="56" height="56" rx="12" fill="#EEF2F7"/>
<text x="610" y="55" font-size="16" text-anchor="middle" fill="#64748B" font-weight="700">{ }</text>
<text x="610.0" y="120" font-size="12.5" text-anchor="middle" fill="#1F2937" font-weight="600">Build Approval</text>
<text x="610.0" y="135" font-size="12.5" text-anchor="middle" fill="#1F2937" font-weight="600">Message</text>
<rect x="780" y="0" width="100" height="100" rx="10" fill="#FFFFFF" stroke="#E11D48" stroke-width="2" filter="url(#sh)"/>
<rect x="802" y="18" width="56" height="56" rx="12" fill="#FFEDEF"/>
<text x="830" y="55" font-size="24" text-anchor="middle" fill="#E11D48" font-weight="700">✉</text>
<text x="830.0" y="120" font-size="12.5" text-anchor="middle" fill="#1F2937" font-weight="600">Ask Scrum Master</text>
<rect x="1000" y="0" width="100" height="100" rx="10" fill="#FFFFFF" stroke="#F59E0B" stroke-width="2" filter="url(#sh)"/>
<rect x="1022" y="18" width="56" height="56" rx="12" fill="#FFF4E5"/>
<text x="1050" y="55" font-size="24" text-anchor="middle" fill="#F59E0B" font-weight="700">⑂</text>
<text x="1050.0" y="120" font-size="12.5" text-anchor="middle" fill="#1F2937" font-weight="600">Approved?</text>
<rect x="1220" y="-100" width="100" height="100" rx="10" fill="#FFFFFF" stroke="#64748B" stroke-width="2" filter="url(#sh)"/>
<rect x="1242" y="-82" width="56" height="56" rx="12" fill="#EEF2F7"/>
<text x="1270" y="-45" font-size="16" text-anchor="middle" fill="#64748B" font-weight="700">{ }</text>
<text x="1270.0" y="20" font-size="12.5" text-anchor="middle" fill="#1F2937" font-weight="600">Restore Items</text>
<rect x="1440" y="-100" width="100" height="100" rx="10" fill="#FFFFFF" stroke="#2563EB" stroke-width="2" filter="url(#sh)"/>
<rect x="1462" y="-82" width="56" height="56" rx="12" fill="#EAF3FF"/>
<text x="1490" y="-45" font-size="24" text-anchor="middle" fill="#2563EB" font-weight="700">◆</text>
<text x="1490.0" y="20" font-size="12.5" text-anchor="middle" fill="#1F2937" font-weight="600">Create Jira Task</text>
<rect x="1220" y="120" width="100" height="100" rx="10" fill="#FFFFFF" stroke="#F59E0B" stroke-width="2" filter="url(#sh)"/>
<rect x="1242" y="138" width="56" height="56" rx="12" fill="#FFF4E5"/>
<text x="1270" y="175" font-size="24" text-anchor="middle" fill="#F59E0B" font-weight="700">→</text>
<text x="1270.0" y="240" font-size="12.5" text-anchor="middle" fill="#1F2937" font-weight="600">Declined — stop</text>
</svg>