<svg xmlns="http://www.w3.org/2000/svg" viewBox="-80 -200 920 386" width="920" font-family="Inter,Segoe UI,Helvetica,Arial,sans-serif">
<defs><pattern id="dots" width="20" height="20" patternUnits="userSpaceOnUse"><circle cx="1" cy="1" r="1" fill="#D5D9E0"/></pattern><filter id="sh" x="-20%" y="-20%" width="140%" height="140%"><feDropShadow dx="0" dy="2" stdDeviation="3" flood-color="#0F172A" flood-opacity=".10"/></filter><marker id="arr" viewBox="0 0 10 10" refX="9" refY="5" markerWidth="7" markerHeight="7" orient="auto"><path d="M0,0 L10,5 L0,10 z" fill="#94A3B8"/></marker></defs>
<rect x="-80" y="-200" width="920" height="386" rx="14" fill="#F8FAFC"/>
<rect x="-80" y="-200" width="920" height="386" rx="14" fill="url(#dots)"/>
<rect x="-80" y="-200" width="920" height="36" rx="14" fill="#1F2937"/><rect x="-80" y="-180" width="920" height="16" fill="#1F2937"/>
<circle cx="-60" cy="-182" r="5" fill="#FF5F57"/><circle cx="-42" cy="-182" r="5" fill="#FEBC2E"/><circle cx="-24" cy="-182" r="5" fill="#28C840"/>
<text x="-4" y="-177" font-size="13" fill="#E5E7EB" font-weight="600">Q01 · Daily agenda + free slots from Google Calendar</text>
<rect x="-40" y="-124" width="440" height="84" rx="8" fill="#FFF8DB" stroke="#F2D675"/>
<text x="-26" y="-96" font-size="15" fill="#5B4B12" font-weight="700">📅 Q01 · Start the day knowing your time</text>
<text x="-26" y="-74" font-size="12.5" fill="#5B4B12" font-weight="400">Today&#x27;s meetings, total meeting load, and free focus slots ≥ 45</text>
<text x="-26" y="-57" font-size="12.5" fill="#5B4B12" font-weight="400">min between 9:00 and 18:00.</text>
<path d="M100,50.0 C160.0,50.0 160.0,50.0 216,50.0" stroke="#94A3B8" stroke-width="2" fill="none" marker-end="url(#arr)"/>
<path d="M320,50.0 C380.0,50.0 380.0,50.0 436,50.0" stroke="#94A3B8" stroke-width="2" fill="none" marker-end="url(#arr)"/>
<path d="M540,50.0 C600.0,50.0 600.0,50.0 656,50.0" stroke="#94A3B8" stroke-width="2" fill="none" marker-end="url(#arr)"/>
<rect x="0" y="0" width="100" height="100" rx="10" fill="#FFFFFF" stroke="#2EA44F" stroke-width="2" filter="url(#sh)"/>
<path d="M30,0 H10 A10,10 0 0 0 0,10 V90 A10,10 0 0 0 10,100 H30" fill="none" stroke="#2EA44F" stroke-width="5"/>
<rect x="22" y="18" width="56" height="56" rx="12" fill="#E8F7EE"/>
<text x="50" y="55" font-size="24" text-anchor="middle" fill="#2EA44F" font-weight="700">◷</text>
<text x="50.0" y="120" font-size="12.5" text-anchor="middle" fill="#1F2937" font-weight="600">Weekdays 7:30</text>
<rect x="220" y="0" width="100" height="100" rx="10" fill="#FFFFFF" stroke="#E11D48" stroke-width="2" filter="url(#sh)"/>
<rect x="242" y="18" width="56" height="56" rx="12" fill="#FFEDEF"/>
<text x="270" y="55" font-size="24" text-anchor="middle" fill="#E11D48" font-weight="700">✉</text>
<text x="270.0" y="120" font-size="12.5" text-anchor="middle" fill="#1F2937" font-weight="600">Today&#x27;s Events</text>
<rect x="440" y="0" width="100" height="100" rx="10" fill="#FFFFFF" stroke="#64748B" stroke-width="2" filter="url(#sh)"/>
<rect x="462" y="18" width="56" height="56" rx="12" fill="#EEF2F7"/>
<text x="490" y="55" font-size="16" text-anchor="middle" fill="#64748B" font-weight="700">{ }</text>
<text x="490.0" y="120" font-size="12.5" text-anchor="middle" fill="#1F2937" font-weight="600">Build Agenda</text>
<rect x="660" y="0" width="100" height="100" rx="10" fill="#FFFFFF" stroke="#E11D48" stroke-width="2" filter="url(#sh)"/>
<rect x="682" y="18" width="56" height="56" rx="12" fill="#FFEDEF"/>
<text x="710" y="55" font-size="24" text-anchor="middle" fill="#E11D48" font-weight="700">✉</text>
<text x="710.0" y="120" font-size="12.5" text-anchor="middle" fill="#1F2937" font-weight="600">Email Me</text>
</svg>